**ABCDEFGHIJKLMNOPQRSTUVWXYZabcdefghijklmnopqrstuvwxyz**************************
**PARASOLID !"#$%&'()*+,-./:;<=>?@[\]^_`{|}~0123456789**************************
**PART1;
MC=unknown;
MC_MODEL=unknown;
MC_ID=unknown;
OS=unknown;
OS_RELEASE=unknown;
FRU=Parasolid 36.0.180;
APPL=Onshape;
SITE=unknown;
USER=unknown;
FORMAT=text;
GUISE=transmit;
KEY=BTGapi::writeModels_.xmt;
FILE=BTGapi::writeModels_.xmt;
DATE=2024-04-30T14:25:15 (UTC);
**PART2;
SCH=SCH_3600180_36001;
USFLD_SIZE=0;
**PART3;
**END_OF_HEADER*****************************************************************
T51 : TRANSMIT FILE created by modeller version 360018023 SCH_3600180_36001_1300
6231 0 12 36 CCCI7 lattice222 0 CCCI4 mesh1006 0 I8 polyline1008 0 CCCCCCCDI5 ow
ner1040 0 CCCI16 boundary_lattice222 0 CCCI13 boundary_mesh1006 0 I17 boundary_p
olyline1008 0 CCCA16 index_map_offset0 0 1 dA9 index_map82 0 A17 node_id_index_m
ap82 0 A20 schema_embedding_map82 0 A5 child12 0 A14 lowest_node_id0 0 1 dA16 me
sh_offset_data206 0 Z1 1498 2 3 0 0 0 0 0 0 0 1e3 1e-8 0 4 5 1 0 1 2 6 0 7 8 9 0
 0 10 11 12 0 0 0 0 0 0 0 81 255 1 2 1477 13 1 14 0 0 0 15 70 11 CI9 list_type0
 0 1 uI10 notransmit0 0 1 lCCCDCCDI12 finger_index0 0 1 dI12 finger_block1012 0
 CZ3 0 4 T1 0 0 5 20 1 16 16 13 255 6 416 0 1 0 17 0 0 18 0 54 255 7 1406 0 19 2
0 0 0 +0 0 5e-4 0 0 -1 .009 5e-4 -1 0 0 38 12 CCCCCCCCCCCA17 intersection_data20
4 0 Z8 1375 0 1 21 0 22 +23 24 25 26 27 28 29 255 9 1302 0 12 29 0 -524045977052
904e-19 .00898454789035523 .052156862745098 19 9 CCCCCCI5 frame230 0 CA5 owner12
 0 Z10 691 0 1 18 0 30 0 V0 16 255 11 1312 31 ?32 0 33 34 0 0 1 18 255 12 1300 3
5 36 0 37 9 ?1 81 1 35 1436 38 12 0 0 39 40 41 17 255 36 0 42 43 44 12 45 46 0 4
7 +18 37 1297 48 44 12 49 29 ?1 81 1 48 1433 38 37 0 0 50 51 52 17 44 0 42 36 53
 37 54 33 0 45 +18 49 1283 55 43 37 56 57 ?1 29 29 1299 0 37 57 9 -5240459770529
04e-19 -.00898454789035523 .052156862745098 29 57 1286 0 49 58 29 -5240459770528
76e-19 .00499972536827168 .052156862745098 29 58 1282 0 56 59 57 -52404597705288
9e-19 -.00499972536827168 .052156862745098 18 56 1279 60 61 49 62 58 ?1 29 59 12
72 0 62 63 58 -.000527161460952476 -.00898454789035523 .0525 18 62 1270 51 64 56
 65 59 ?1 29 63 1268 0 65 66 59 -.000527161460952476 .00898454789035523 .0525 18
 65 1266 40 67 62 68 63 ?1 29 66 1265 0 68 69 63 -.000527161460952476 .004972132
4192027 .0525 18 68 1262 70 71 65 72 66 ?1 29 69 1261 0 72 73 66 -.0005271614609
52476 -.0049721324192027 .0525 18 72 1258 74 75 68 76 69 ?1 29 73 1250 0 76 77 6
9 -.000556448208783167 -.00948368943981941 .052 18 76 1248 50 78 72 79 73 ?1 29
 77 1247 0 79 80 73 -.000556448208783167 .00948368943981941 .052 18 79 1245 39 8
1 76 82 77 ?1 29 80 1159 0 82 83 77 .001806394146185705 -.002227484769208345 .04
7904239778555 18 82 1103 84 85 79 86 80 ?1 29 83 1160 0 86 87 80 .00180639414618
5705 -.00331309582575374 .047904239778555 18 86 1104 88 89 82 90 83 ?1 29 87 116
1 0 90 91 83 .001375016304132816 -.003514113533363685 .0487197048550475 18 90 11
05 92 93 86 94 87 ?1 29 91 1162 0 94 95 87 .001375016304132816 -.004317890142702
88 .0487197048550475 18 94 1106 96 97 90 98 91 ?1 29 95 1163 0 98 99 91 .0008222
50156607658 -.00445631572052973 .0498869086912965 18 98 1107 100 101 94 102 95 ?
1 29 99 1164 0 102 103 95 .000822250156607658 -.0049319270756935 .04988690869129
65 18 102 1108 104 105 98 106 99 ?1 29 103 1167 0 106 107 99 .0021138474288471 -
.00193814273364622 .0473640807271661 18 106 1112 108 109 102 110 103 ?1 29 107 1
168 0 110 111 103 .002113847428847095 .001938142733646225 .0473640807271661 18 1
10 1113 112 113 106 114 107 ?1 29 111 1169 0 114 115 107 .001806394146185705 .00
2227484769208345 .047904239778555 18 114 1114 116 117 110 118 111 ?1 29 115 1170
 0 118 119 111 .001806394146185705 .00331309582575374 .047904239778555 18 118 11
15 120 121 114 122 115 ?1 29 119 1171 0 122 123 115 .001375016304132816 .0035141
13533363685 .0487197048550475 18 122 1116 124 125 118 126 119 ?1 29 123 1172 0 1
26 127 119 .001375016304132816 .00431789014270288 .0487197048550475 18 126 1117
 128 129 122 130 123 ?1 29 127 1173 0 130 131 123 .000822250156607658 .004456315
72052973 .0498869086912965 18 130 1118 132 133 126 134 127 ?1 29 131 1174 0 134
 0 127 .000822250156607658 .0049319270756935 .0498869086912965 18 134 1119 135 1
36 130 0 131 ?1 81 1 135 1205 38 134 0 0 104 96 137 17 136 0 42 133 43 134 138 1
39 0 140 -15 255 42 1298 0 53 141 0 17 133 0 42 129 136 130 140 142 0 143 -17 43
 0 42 136 36 49 47 144 0 138 +17 138 0 145 71 146 49 136 139 0 147 +16 139 1079
 148 ?138 142 149 150 0 0 1 17 140 0 151 152 153 134 133 142 0 146 +15 151 707 0
 152 154 0 17 152 0 151 155 140 102 146 156 0 0 -17 153 0 151 140 155 130 157 15
8 0 0 +16 142 1076 159 ?140 160 139 161 162 162 1 17 146 0 145 138 105 134 152 1
56 0 0 +15 145 702 0 163 164 0 17 105 0 145 146 61 102 53 165 0 166 +16 156 700
 167 ?146 158 168 169 0 0 1 81 1 167 1185 38 156 0 0 170 171 172 16 158 705 173
 ?153 174 156 175 0 0 1 16 168 1259 176 ?177 156 178 179 0 0 1 31 255 169 779 0
 156 179 175 0 +0 0 .0498869086912965 0 0 -1 -1 0 0 .005 31 179 778 0 168 180 16
9 0 +0 0 .0525 0 0 -1 -1 0 0 .005 31 175 780 0 158 169 181 0 +0 0 .0498869086912
965 0 0 -1 -1 0 0 .00453153893518325 31 181 781 0 174 175 182 0 +0 0 .0487197048
550475 0 0 -1 -1 0 0 .00453153893518326 16 174 710 171 ?183 184 158 181 0 0 1 31
 182 782 0 184 181 185 0 +0 0 .0487197048550475 0 0 -1 -1 0 0 .00377354790111386
5 16 184 715 186 ?187 188 174 182 0 0 1 31 185 783 0 188 182 189 0 +0 0 .0479042
39778555 0 0 -1 -1 0 0 .00377354790111386 16 188 720 190 ?191 192 184 185 0 0 1
 31 189 784 0 192 185 193 0 +0 0 .047904239778555 0 0 -1 -1 0 0 .002867882181755
23 16 192 725 170 ?194 195 188 189 0 0 1 31 193 785 0 195 189 196 0 +0 0 .047364
0807271661 0 0 -1 -1 0 0 .00286788218175523 16 195 730 197 ?198 199 192 193 0 0
 1 31 196 786 0 199 193 200 0 +0 0 .0473640807271661 0 0 -1 -1 0 0 .001873032967
079555 16 199 735 201 ?202 203 195 196 0 0 1 31 200 787 0 203 196 204 0 +0 0 .04
7 0 0 -1 -1 0 0 .001873032967079565 16 203 740 205 ?206 207 199 200 0 0 1 31 204
 1242 0 207 200 208 0 -0 0 5e-4 0 0 -1 -1 0 0 .0095 16 207 1239 209 ?210 211 203
 204 0 0 1 38 208 1251 0 211 204 212 0 +213 214 215 216 217 218 16 211 1249 219
 ?78 220 207 208 0 0 1 31 212 1255 0 220 208 221 0 +0 0 .052 0 0 -1 -1 0 0 .0095
 59 255 213 1252 0 1 214 222 223 +0 224 51 255 214 776 0 17 225 213 226 +0 0 .02
6 0 0 -1 .0095 -1 0 0 40 255 13 215 0 1 13 .000880710519360798 .3783989874263985
 ??-.000556448208783167 .00948368943981941 .052 .001518602592024925 .00937783803
269684 .0475367916806031 .00447996099735932 .00837734740011058 .0434988722913170
5 .00677487507079451 .00665965973418516 .0412357782206437 .00824334017186212 .00
472200622733222 .0400449518962461 .00920667198898742 .00234247537600601 .0393517
8440144265 .00949506426271012 -.000306193806281684 .0391565229579066 .0091956951
8492841 -.00238520231131124 .0393593243898762 .00799039427615567 -.0051384432770
6153 .04023797289605055 .00622045506907695 -.00718024642568729 .0417330527732507
 .00378945955962665 -.0087114864544436 .0443021044590953 .001009262438676702 -.0
0944623678137895 .0484401929240101 -.000556448208783168 -.00948368943981941 .052
 41 3 CI8 term_use0 0 1 cCZ1 216 L?-.000556448208783167 .00948368943981941 .052
 41 1 217 L?-.000556448208783168 -.00948368943981941 .052 204 2 17 INTERSECTION_
DATA17 Intersection data7 uv_type0 0 1 u6 values0 1 1 fT26 218 3 1.5121892864627
35 -.026 1.731337966207045 -.02153679168060305 2.061872140956785 -.0174988722913
1705 2.364770336975155 -.0152357782206437 2.62139311993073 -.0140449518962461 2.
89244671814306 -.01335178440144262 3.17382916360037 -.01315652295790658 3.395382
215383475 -.0133593243898762 3.713086082812305 -.01423797289605052 3.99849119460
132 -.0157330527732507 4.302082400590005 -.0183021044590953 4.60594996346891 -.0
2244019292401005 4.77099602071685 -.026 14 255 17 761 227 ?228 0 229 6 214 +0 0
 228 0 30 50 255 225 775 0 228 230 214 0 +-.00475 0 0 0 0 -1 -1 0 0 141 255 226
 208 231 231 214 141 231 224 226 226 214 56 255 224 1370 0 232 233 23 234 +R235
 214 8 5e-4 -5e-4 1 1 0 0 0 0 14 232 1329 236 ?237 238 239 6 224 +0 0 237 238 30
 51 233 1371 0 237 240 224 241 +-.000527161460952476 .1047551443311866 .052 0 -1
 0 5e-4 0 0 -1 51 23 1369 0 1 224 24 242 +0 0 .026 0 0 -1 .009 -1 0 0 141 234 21
3 243 243 224 51 235 1141 0 141 0 244 245 +.02368543856465405 .1047551443311866
 .06 0 -1 0 .025 0 0 -1 14 141 1127 246 ?238 247 42 6 235 -0 0 238 247 30 50 244
 764 0 247 235 248 0 +-.00725 0 .0525 0 0 -1 -1 0 0 141 245 150 249 250 235 38 1
50 1156 0 139 0 161 0 +248 235 251 252 253 254 141 249 255 256 245 235 141 250 2
57 245 258 235 38 257 1154 0 160 161 259 0 +260 235 261 262 263 264 141 258 265
 250 266 235 38 265 1152 0 267 259 268 0 +269 235 270 271 272 273 141 266 274 25
8 275 235 38 274 1150 0 276 268 277 0 +278 235 279 280 281 282 141 275 283 266 2
84 235 38 283 1147 0 165 277 285 0 +248 235 286 287 288 289 141 284 285 275 290
 235 38 285 1146 0 291 283 292 0 +260 235 293 294 295 296 141 290 292 284 297 23
5 38 292 1145 0 298 285 180 0 +269 235 299 300 301 302 141 297 180 290 256 235 3
8 180 1144 0 178 292 179 0 +278 235 303 304 305 306 141 256 224 297 249 235 16 1
78 1046 307 ?85 168 308 180 0 0 1 51 278 771 0 309 310 311 312 -0 0 .026 0 0 -1
 .00286788218175523 -1 0 0 40 2 303 0 1 2 472733725348064e-19 .131843147259878 ?
?.002113847428847095 -.001938142733646225 .0473640807271661 .00180639414618571 -
.002227484769208345 .047904239778555 41 1 304 L?.002113847428847095 -.0019381427
33646225 .0473640807271661 41 1 305 L?.00180639414618571 -.002227484769208345 .0
47904239778555 204 8 306 4 3.883655397681195 -.02136408072716605 5.2422770583470
8 .106693287064833 4.03100261775839 -.02190423977855505 5.2174152250949 .1069826
29100395 14 309 733 313 ?314 315 316 6 278 +0 0 314 315 30 50 310 770 0 314 269
 278 0 +-.003320715041434545 0 .047904239778555 0 0 -1 -1 0 0 50 311 772 0 315 2
78 317 0 +-.0023704575744174 0 .0473640807271661 0 0 -1 -1 0 0 141 312 274 318 3
18 278 141 318 180 312 312 278 14 315 738 319 ?309 320 321 6 311 -0 0 309 320 30
 51 317 773 0 320 311 230 0 -0 0 .026 0 0 -1 .00187303296707956 -1 0 0 14 320 74
3 322 ?315 323 324 6 317 +0 0 315 323 30 50 230 774 0 323 317 225 0 +-.000936516
483539782 0 .047 0 0 -1 -1 0 0 14 323 748 325 ?320 228 326 6 230 -0 0 320 228 30
 81 1 325 1480 327 323 328 0 329 322 330 14 228 758 329 ?323 17 331 6 225 +0 0 3
23 17 30 15 326 823 0 332 323 0 13 30 690 0 0 0 0 0 0 10 17 17 332 0 326 332 332
 0 206 203 0 0 -17 206 0 324 206 206 0 332 203 0 0 +15 324 825 0 206 320 333 15
 333 742 0 334 320 0 17 334 0 333 334 334 0 202 199 0 0 -17 202 0 335 202 202 0
 334 199 0 0 +15 335 737 0 202 315 0 81 1 329 1479 327 228 336 0 227 325 337 15
 331 1313 0 32 228 0 17 32 0 331 32 32 0 338 11 0 0 +17 338 0 339 338 338 0 32 1
1 0 0 -15 339 1401 0 338 19 0 14 19 1399 340 ?0 341 342 6 7 +0 0 0 341 30 81 1 3
40 1498 327 19 343 0 344 0 345 14 341 1337 344 ?19 346 347 6 348 +0 0 19 346 30
 15 342 1400 0 349 19 339 17 349 0 342 349 349 0 210 207 0 0 -17 210 0 350 210 2
10 0 349 207 0 0 +15 350 1240 0 210 17 0 81 1 344 1497 327 341 351 0 352 340 353
 14 346 1335 352 ?341 354 355 6 356 +0 0 341 354 30 15 347 1338 0 64 341 0 54 34
8 1374 0 341 222 356 0 +0 0 .052 0 0 -1 .009 5e-4 -1 0 0 59 222 1304 0 1 213 348
 357 +1 224 53 255 356 1373 0 346 348 240 0 +-.000527161460952477 .0089845478903
5523 .052 5e-4 -.0585734956613804 .998283098928358 0 -.998283098928358 -.0585734
956613804 0 53 240 1372 0 354 356 233 0 +-.000527161460952477 -.0089845478903552
3 .052 5e-4 -.0585734956613804 -.998283098928358 0 .998283098928358 -.0585734956
613804 0 14 354 1333 358 ?346 237 359 6 240 +0 0 346 237 30 81 1 358 1495 327 35
4 360 0 361 352 362 14 237 1331 361 ?354 232 363 6 233 +0 0 354 232 30 15 359 13
34 0 364 354 0 17 364 0 359 365 366 37 367 368 0 0 +17 365 0 359 366 364 62 369
 149 0 370 +17 366 0 359 364 365 76 64 371 0 372 -17 367 0 239 373 45 76 364 368
 0 366 -16 368 1350 374 ?364 149 375 376 0 0 1 81 1 374 1444 38 368 0 0 209 377
 378 16 149 1349 379 ?365 139 368 21 0 0 1 16 375 1351 380 ?381 368 382 383 0 0
 1 31 376 1377 0 368 383 21 0 +-.000527161460952474 -.00898454789035523 .052 -.3
13672352352771 .0184044848493927 .949352900826088 .949513726494372 0 .3137254901
960805 5e-4 31 383 1378 0 375 384 376 0 +-.000527161460952477 .00898454789035523
 .052 -.3136723523527695 -.01840448484939095 .949352900826088 .949513726494372 0
 .313725490196079 5e-4 31 21 1376 0 149 376 8 0 +-.000527161460952477 -.00898454
789035523 .052 0 -1 0 0 0 -1 5e-4 31 384 1379 0 382 385 383 0 +-.000527161460952
476 .00898454789035523 .052 0 1 0 0 0 1 5e-4 16 382 1352 386 ?387 375 371 384 0
 0 1 31 385 1380 0 371 388 384 0 --.000527161460952476 -.00898454789035523 .052
 .998283098928358 -.0585734956613825 0 .0585734956613825 .998283098928358 0 5e-4
 16 371 1354 377 ?64 382 389 385 0 0 1 31 388 1381 0 389 34 385 0 --.00052716146
0952474 .00898454789035523 .052 .998283098928358 .058573495661386 34634902547637
95e-30 -.058573495661386 .998283098928358 0 5e-4 16 389 1356 390 ?81 371 0 388 0
 0 1 31 34 1315 0 11 391 388 0 +0 0 0 0 0 -1 -1 0 0 .009 30 255 391 1309 0 33 39
2 34 0 +-524045977052939e-19 .1047551443311866 .052156862745098 0 -1 0 16 33 130
7 393 ?44 11 144 391 0 0 1 30 392 1306 0 144 255 391 0 +-524045977052939e-19 .10
47551443311866 .052156862745098 0 -1 0 16 144 1305 394 ?43 33 46 392 0 0 1 38 25
5 1303 0 46 395 392 0 +222 235 396 397 398 399 16 46 1301 400 ?36 144 401 255 0
 0 1 38 395 1294 0 401 402 255 0 +20 248 403 404 405 406 40 13 396 0 1 13 .00084
2903903103636 .37947827055068 ??-524045977052904e-19 -.00898454789035523 .052156
862745098 .00140181581789212 -.00894906642446426 .048666855807853 .0039840422460
1902 -.00825298716736767 .04460990633244635 .00624193281207194 -.006802338719072
2 .0420912282090693 .00788583919635556 -.0048679988940583 .04062546362357895 .00
900531372462751 -.00225966534755803 .0397640435194865 .0092833654996569 -.000290
078342793174 .0395652185861829 .00901550889867607 .002219187198321485 .039756651
37396335 .00812077346481356 .004473479583788425 .0404362273492609 .0067568739901
3776 .00630915132712278 .041603704137886 .00462537485072427 .00793643437905212 .
04382242381501675 .001874887167751145 .00888426760992332 .0477811683143167 -5240
45977052904e-19 .00898454789035523 .052156862745098 41 1 397 L?-524045977052904e
-19 -.00898454789035523 .052156862745098 41 1 398 L?-524045977052904e-19 .008984
54789035523 .052156862745098 204 26 399 3 5.03150305991707 .113739692221542 5.18
288197387241 .113704210755651 5.3755408395641 .1130081314985544 5.51094723447134
 .111557483050259 5.59907473084773 .109623143225245 5.65558382892911 .1070148096
787446 5.66925692450172 .10504522267398 5.65608755169837 .1025359571328652 5.611
14158344662 .1002816647473982 5.53931278693479 .0984459930040639 5.4161674929714
8 .0968187099521346 5.22304911281623 .0958708767212634 5.03150305991707 .0957705
964408315 16 401 1292 407 ?61 46 408 395 0 0 1 38 402 1289 0 408 409 395 0 +233
 248 410 411 412 413 51 20 1367 0 238 24 7 414 +-.000527161460952476 .1047551443
311866 .052 0 -1 0 5e-4 0 0 -1 51 248 765 0 164 244 415 416 +0 0 .026 0 0 -1 .00
5 -1 0 0 40 5 403 0 1 5 282865123326691e-19 .3384037398752635 ??-.00052716146095
2476 -.0049721324192027 .0525 -.0003622416333021895 -.00498686083614758 .0524720
184852819 -.0002154161924763065 -.00499535743105726 .0523909154481249 -.00010385
5041557497 -.00499892129667422 .0522661046322389 -524045977052884e-19 -.00499972
536827168 .052156862745098 41 1 404 L?-.000527161460952476 -.0049721324192027 .0
525 41 1 405 L?-524045977052884e-19 -.00499972536827168 .052156862745098 204 20
 406 4 3.141592653589795 .1097272767503894 4.81801758650328 -.0265 2.80545893349
7915 .1097420051673342 4.78490083452163 -.0264720184852819 2.46839328760019 .109
750501762244 4.75548555829475 -.02639091544812495 2.13200429159834 .109754065627
861 4.73316148254215 -.0262661046322389 1.88991040632726 .1097548696994584 4.722
87009182283 -.02615686274509805 14 164 703 417 ?247 154 145 6 248 -0 0 247 154 3
0 50 415 766 0 154 248 260 0 +-.00476576946759163 0 .0498869086912965 0 0 -1 -1
 0 0 141 416 150 418 419 248 141 418 395 420 416 248 141 419 283 416 420 248 141
 420 402 419 418 248 14 154 708 421 ?164 422 151 6 415 -0 0 164 422 30 51 260 76
7 0 422 415 423 424 -0 0 .026 0 0 -1 .00453153893518325 -1 0 0 14 422 713 425 ?1
54 426 427 6 260 +0 0 154 426 30 50 423 768 0 426 260 269 0 +-.00415254341814856
 0 .0487197048550475 0 0 -1 -1 0 0 141 424 257 428 428 260 141 428 285 424 424 2
60 14 426 718 429 ?422 430 431 6 423 -0 0 422 430 30 51 269 769 0 430 423 310 43
2 -0 0 .026 0 0 -1 .003773547901113865 -1 0 0 14 430 723 433 ?426 314 434 6 269
 +0 0 426 314 30 141 432 265 435 435 269 141 435 292 432 432 269 81 1 433 1485 3
27 430 436 0 437 429 438 14 314 728 437 ?430 309 439 6 310 -0 0 430 309 30 15 43
4 966 0 440 430 0 17 440 0 434 441 191 122 121 267 0 187 -17 441 0 434 442 440 9
0 187 184 0 0 -17 191 0 434 440 442 118 443 188 0 0 +17 121 0 42 117 125 118 440
 267 0 444 +16 267 1061 445 ?121 446 447 265 0 0 1 17 187 0 431 448 449 122 441
 184 0 0 +15 431 717 0 450 426 0 17 448 0 431 450 187 126 125 447 0 183 +17 449
 0 431 187 450 90 97 451 0 441 +17 450 0 431 449 448 94 183 174 0 0 -17 97 0 42
 101 93 94 449 451 0 452 -16 451 1094 453 ?449 298 291 259 447 447 1 81 1 453 12
22 38 451 0 0 454 455 456 16 298 1049 457 ?93 308 451 292 0 0 1 16 291 1052 458
 ?101 451 162 285 0 0 1 30 259 1153 0 447 257 265 0 -.001375016304132816 .104755
1443311866 .0487197048550475 0 -1 0 16 447 1073 455 ?448 267 160 259 451 451 1 8
1 1 455 1223 38 447 0 0 453 457 459 16 160 1058 454 ?129 447 142 257 0 0 1 81 1
 454 1221 38 160 0 0 458 453 460 17 129 0 42 125 133 126 143 160 0 448 +17 125 0
 42 121 129 122 448 447 0 440 -17 143 0 427 157 183 130 129 160 0 153 -15 427 94
0 0 143 422 0 17 157 0 427 452 143 98 153 158 0 0 -17 183 0 427 143 452 126 450
 174 0 0 +17 452 0 427 183 157 94 101 291 0 450 -17 101 0 42 166 97 98 452 291 0
 155 +17 166 0 42 53 101 102 155 162 0 152 -17 155 0 151 153 152 98 166 162 0 15
7 +16 162 1091 461 ?155 291 165 161 142 142 1 81 1 461 1218 38 162 0 0 112 159 4
62 16 165 1280 463 ?105 162 464 283 0 0 1 30 161 1155 0 142 150 257 0 -.00082225
0156607658 .1047551443311866 .0498869086912965 0 -1 0 81 1 463 1461 38 165 0 0 1
76 148 465 16 464 1067 466 ?467 165 276 277 0 0 1 81 1 466 1179 38 464 0 0 468 1
73 469 17 467 0 321 470 470 110 109 464 0 198 +16 276 1064 471 ?113 464 446 274
 0 0 1 30 277 1149 0 464 274 283 0 -.0021138474288471 .1047551443311866 .0473640
807271661 0 -1 0 81 1 471 1229 38 276 0 0 307 50 472 17 113 0 42 109 117 110 473
 276 0 467 +16 446 1070 474 ?444 276 267 268 308 308 1 81 1 474 1227 38 446 0 0
 475 307 476 17 444 0 439 443 194 118 117 446 0 191 +30 268 1151 0 446 265 274 0
 -.001806394146185705 .1047551443311866 .047904239778555 0 -1 0 16 308 1097 475
 ?477 178 298 268 446 446 1 81 1 475 1226 38 308 0 0 445 474 478 17 477 0 439 19
4 443 82 89 308 0 479 +15 439 727 0 443 314 0 17 194 0 439 444 477 114 479 192 0
 0 +17 443 0 439 477 444 86 191 188 0 0 -17 89 0 42 93 85 86 477 308 0 442 -17 4
79 0 316 480 473 82 194 192 0 0 -15 316 992 0 473 309 0 17 480 0 316 198 479 106
 85 178 0 470 -17 473 0 316 479 198 114 113 276 0 194 -17 198 0 316 473 480 110
 470 195 0 0 +17 470 0 321 467 467 106 198 195 0 0 -15 321 824 0 470 315 335 17
 85 0 42 89 109 82 480 178 0 477 +17 109 0 42 85 113 106 467 464 0 480 -17 93 0
 42 97 89 90 442 298 0 449 +17 442 0 434 191 441 86 93 298 0 443 -80 7 CCCCCDI12
 legal_owners0 17 1 lCZ1 38 481 482 9000 0 0 0 0 3 6 0 0 0 FFTFTFTTFFFFFFFFF1 81
 1 445 1225 38 267 0 0 457 475 483 82 255 3 478 11 19 1 81 1 457 1224 38 298 0 0
 455 445 484 82 3 483 11 18 1 82 3 484 11 17 1 79 255 9 482 BTI/DetId17 117 0 42
 113 121 114 444 446 0 473 -81 1 307 1228 38 178 0 0 474 471 485 82 3 476 11 20
 1 82 3 485 11 21 1 81 1 50 1432 38 76 0 0 471 48 486 82 3 472 11 22 1 82 3 486
 12 0 0 81 1 468 860 38 1 0 487 488 466 489 81 1 173 1180 38 158 0 0 466 186 490
 82 3 469 11 1 1 81 1 186 1181 38 184 0 0 173 170 491 82 3 490 11 2 1 81 1 170 1
182 38 192 0 0 186 167 492 82 3 491 11 3 1 82 3 492 11 4 1 81 1 487 1475 493 1 4
68 14 0 0 494 81 1 488 857 38 320 0 322 328 468 495 82 3 489 7 0 3 81 1 322 1481
 327 320 488 0 325 319 496 81 1 328 849 38 323 0 325 205 488 497 82 3 495 7 10 2
 81 1 205 840 38 203 0 0 201 328 498 82 3 497 7 2 2 81 1 201 839 38 199 0 0 0 20
5 499 82 3 498 7 5 1 82 3 499 7 4 1 80 1 327 0 500 8001 0 0 0 0 3 5 0 0 0 FFFFTF
TFFFFFFFFFF2 81 1 319 1482 327 315 501 0 322 313 502 83 255 3 496 .6470588235294
12 .647058823529412 .647058823529412 81 1 501 1197 38 315 0 319 503 100 504 81 1
 313 1483 327 309 503 0 319 437 505 83 3 502 .647058823529412 .647058823529412 .
647058823529412 81 1 503 1196 38 309 0 313 506 501 507 81 1 437 1484 327 314 506
 0 313 433 508 83 3 505 .647058823529412 .647058823529412 .647058823529412 81 1
 506 1195 38 314 0 437 436 503 509 83 3 508 .647058823529412 .647058823529412 .6
47058823529412 81 1 436 1194 38 430 0 433 510 506 511 82 3 509 11 6 2 81 1 510 1
193 38 426 0 429 512 436 513 82 3 511 11 5 2 81 1 429 1486 327 426 510 0 433 425
 514 81 1 512 1192 38 422 0 425 515 510 516 82 3 513 11 4 2 81 1 425 1487 327 42
2 512 0 429 421 517 81 1 515 1191 38 154 0 421 197 512 518 82 3 516 11 3 2 81 1
 421 1488 327 154 515 0 425 417 519 81 1 197 1188 38 195 0 0 190 515 520 82 3 51
8 11 2 2 81 1 190 1187 38 188 0 0 171 197 521 82 3 520 11 10 1 81 1 171 1186 38
 174 0 0 167 190 522 82 3 521 11 9 1 82 3 522 11 8 1 81 1 417 1489 327 164 523 0
 421 524 525 83 3 519 .647058823529412 .647058823529412 .647058823529412 81 1 52
3 1474 38 164 0 417 526 0 527 81 1 524 1490 327 247 526 0 417 246 528 83 3 525 .
647058823529412 .647058823529412 .647058823529412 14 247 698 524 ?141 164 529 6
 244 -0 0 141 164 30 81 1 526 1473 38 247 0 524 530 523 531 81 1 246 1491 327 14
1 532 0 524 533 534 83 3 528 .647058823529412 .647058823529412 .647058823529412
 81 1 532 1471 38 141 0 246 336 530 535 81 1 533 1492 327 238 536 0 246 236 537
 83 3 534 .647058823529412 .647058823529412 .647058823529412 14 238 1327 533 ?23
2 141 538 6 20 +0 0 232 141 30 81 1 536 1468 38 238 0 533 351 539 540 81 1 236 1
493 327 232 541 0 533 361 542 83 3 537 .647058823529412 .647058823529412 .647058
823529412 81 1 541 1466 38 232 0 236 543 351 544 81 1 361 1494 327 237 539 0 236
 358 545 83 3 542 .647058823529412 .647058823529412 .647058823529412 81 1 539 14
69 38 237 0 361 536 336 546 83 3 545 .647058823529412 .647058823529412 .64705882
3529412 81 1 336 1470 38 228 0 329 539 532 547 82 3 546 12 6 2 82 3 547 12 7 2 8
1 1 543 1465 38 346 0 352 360 541 548 81 1 351 1467 38 341 0 344 541 536 549 82
 3 544 12 3 2 82 3 549 12 4 2 81 1 352 1496 327 346 543 0 358 344 550 81 1 360 1
464 38 354 0 358 343 543 551 82 3 548 12 2 2 81 1 343 1463 38 19 0 340 148 360 5
52 82 3 551 12 1 2 81 1 148 1462 38 139 0 0 463 343 553 82 3 552 12 0 2 82 3 553
 12 20 1 83 3 550 .647058823529412 .647058823529412 .647058823529412 82 3 540 12
 5 2 15 538 1328 0 554 238 0 17 554 0 538 370 54 72 61 401 0 0 -17 370 0 538 369
 554 62 75 555 0 556 -17 54 0 538 554 369 56 44 33 0 0 -17 61 0 145 105 163 56 5
54 401 0 53 +17 163 0 145 61 71 72 177 168 0 554 -17 53 0 42 44 166 56 105 165 0
 54 -17 71 0 145 163 138 68 147 408 0 177 +17 177 0 529 67 75 68 163 168 0 557 +
15 529 697 0 556 247 0 17 67 0 529 556 177 65 557 558 0 559 +17 75 0 529 177 556
 72 370 555 0 163 +17 557 0 363 147 559 68 67 558 0 0 -15 363 1332 0 147 237 0 1
7 147 0 363 47 557 49 71 408 0 0 -17 559 0 363 557 47 65 387 382 0 560 -16 558 1
267 561 ?67 562 220 221 0 0 1 81 1 561 1458 38 558 0 0 394 563 564 16 562 1271 5
65 ?556 555 558 566 0 0 1 16 220 1253 567 ?568 558 211 212 0 0 1 30 221 1269 0 5
58 212 566 0 --.000527161460952476 0 .0525 0 -1 0 31 566 1273 0 562 221 409 0 -0
 0 .0525 0 0 -1 -1 0 0 .009 30 409 1276 0 555 566 402 0 --.000527161460952476 0
 .0525 0 -1 0 16 555 1274 569 ?75 408 562 409 0 0 1 81 1 569 1455 38 555 0 0 393
 407 570 16 408 1287 563 ?71 401 555 402 0 0 1 81 1 563 1459 38 408 0 0 561 176
 571 81 1 176 1460 38 168 0 0 563 463 572 82 3 571 12 17 1 82 3 572 12 18 1 81 1
 393 1454 38 33 0 0 565 569 573 81 1 407 1456 38 401 0 0 569 394 574 82 3 570 12
 13 1 81 1 394 1457 38 144 0 0 407 561 575 82 3 574 12 14 1 82 3 575 12 15 1 81
 1 565 1453 38 562 0 0 567 393 576 82 3 573 12 12 1 81 1 567 1452 38 220 0 0 219
 565 577 82 3 576 12 11 1 81 1 219 1451 38 211 0 0 400 567 578 82 3 577 12 10 1
 81 1 400 1450 38 46 0 0 386 219 579 82 3 578 12 9 1 81 1 386 1449 38 382 0 0 39
0 400 580 82 3 579 12 8 1 81 1 390 1448 38 389 0 0 380 386 581 82 3 580 12 7 1 8
1 1 380 1447 38 375 0 0 379 390 582 82 3 581 12 6 1 81 1 379 1446 38 149 0 0 377
 380 583 82 3 582 12 5 1 81 1 377 1445 38 371 0 0 374 379 584 82 3 583 12 4 1 82
 3 584 12 3 1 17 568 0 229 78 78 79 372 220 0 0 +15 229 1246 0 78 17 350 17 78 0
 229 568 568 76 373 211 0 367 +17 372 0 347 64 81 76 568 220 0 0 -17 64 0 347 56
0 372 62 366 371 0 365 +17 81 0 347 372 560 79 585 389 0 381 +17 560 0 347 81 64
 65 556 562 0 585 -17 585 0 355 387 381 65 81 389 0 0 -17 381 0 355 585 387 79 5
86 375 0 373 +15 355 1336 0 387 346 0 17 387 0 355 381 585 12 559 382 0 0 +17 58
6 0 239 45 373 12 381 375 0 387 -17 373 0 239 586 367 79 78 211 0 568 -15 239 13
30 0 586 232 0 17 45 0 239 367 586 37 36 46 0 369 -17 369 0 538 54 370 37 365 14
9 0 364 -17 556 0 529 75 67 62 560 562 0 0 +82 3 564 12 16 1 17 47 0 363 559 147
 12 43 144 0 586 -81 1 530 1472 38 17 0 227 532 526 587 82 3 535 12 8 2 81 1 227
 1478 327 17 530 0 0 329 588 82 3 587 12 9 2 83 3 588 .647058823529412 .64705882
3529412 .647058823529412 82 3 531 12 10 2 82 3 527 12 11 2 83 3 517 .64705882352
9412 .647058823529412 .647058823529412 83 3 514 .647058823529412 .64705882352941
2 .647058823529412 82 3 507 11 7 2 81 1 100 1202 38 98 0 0 501 132 589 82 3 504
 11 8 2 81 1 132 1203 38 130 0 0 100 104 590 82 3 589 11 2 0 81 1 104 1204 38 10
2 0 0 132 135 591 82 3 590 11 3 0 82 3 591 11 4 0 79 15 500 SDL/TYSA_COLOUR80 1
 493 592 593 8038 0 0 0 0 0 0 0 0 0 TTTTTTTTTTTTTFTFT10 81 1 14 1476 592 1 487 2
 0 0 594 98 255 14 494 99 111 97 114 115 101 45 103 114 105 110 100 101 114 80 1
 592 595 596 8017 0 0 0 0 0 0 0 0 0 TTTTTTTTTTTTTFTFT3 84 255 14 594 coarse-grin
der79 13 596 SDL/TYSA_NAME79 14 593 SDL/TYSA_UNAME82 3 465 12 19 1 81 1 112 1215
 38 110 0 0 108 461 597 81 1 159 1219 38 142 0 0 461 458 598 82 3 462 11 11 1 81
 1 458 1220 38 291 0 0 159 454 599 82 3 598 11 12 1 82 3 599 11 13 1 81 1 108 12
14 38 106 0 0 116 112 600 82 3 597 11 15 0 81 1 116 1213 38 114 0 0 84 108 601 8
2 3 600 11 14 0 81 1 84 1212 38 82 0 0 120 116 602 82 3 601 11 13 0 81 1 120 121
1 38 118 0 0 88 84 603 82 3 602 11 12 0 81 1 88 1210 38 86 0 0 124 120 604 82 3
 603 11 11 0 81 1 124 1209 38 122 0 0 92 88 605 82 3 604 11 10 0 81 1 92 1208 38
 90 0 0 128 124 606 82 3 605 11 9 0 81 1 128 1207 38 126 0 0 96 92 607 82 3 606
 11 8 0 81 1 96 1206 38 94 0 0 135 128 608 82 3 607 11 7 0 82 3 608 11 6 0 82 3
 460 11 14 1 82 3 459 11 16 1 82 3 456 11 15 1 83 3 438 .647058823529412 .647058
823529412 .647058823529412 51 24 1368 0 1 23 20 609 +.02368543856465405 .1047551
443311866 .06 0 -1 0 .0255 0 0 -1 141 414 395 414 414 20 141 609 8 609 609 24 40
 5 410 0 1 5 282037891194477e-19 .337817579705991 ??-524045977052912e-19 .004999
72536827168 .052156862745098 -.000130982990454248 .00499828405117313 .0523050288
830811 -.000254090688831939 .00499353961853202 .0524188464556535 -.0004074498629
903935 .00498337080791196 .0524854576534708 -.000527161460952474 .00497213241920
27 .0525 41 1 411 L?-524045977052912e-19 .00499972536827168 .052156862745098 41
 1 412 L?-.000527161460952474 .0049721324192027 .0525 204 20 413 4 1.88991040632
7275 .099755418962915 1.56031521535675 -.02615686274509805 2.22692981989062 .099
7568602800136 1.544596731491145 -.0263050288830811 2.56384141923755 .09976160471
26547 1.519956290740025 -.0264188464556535 2.899820928899625 .0997717735232747 1
.48921589301449 -.0264854576534708 3.14159265358979 .099783011911984 1.465167720
676312 -.0265 81 1 209 1443 38 207 0 0 31 374 610 82 3 378 12 2 1 81 1 31 1442 3
8 11 0 0 70 209 611 82 3 610 12 1 1 81 1 70 1441 38 68 0 0 55 31 612 82 3 611 12
 0 1 81 1 55 1440 38 49 0 0 74 70 613 82 3 612 12 9 0 81 1 74 1439 38 72 0 0 60
 55 614 82 3 613 12 8 0 81 1 60 1438 38 56 0 0 40 74 615 82 3 614 12 7 0 81 1 40
 1437 38 65 0 0 35 60 616 82 3 615 12 6 0 82 3 616 12 5 0 83 3 362 .647058823529
412 .647058823529412 .647058823529412 141 357 255 357 357 222 83 3 353 .64705882
3529412 .647058823529412 .647058823529412 83 3 345 .647058823529412 .64705882352
9412 .647058823529412 83 3 337 .647058823529412 .647058823529412 .64705882352941
2 83 3 330 .647058823529412 .647058823529412 .647058823529412 40 2 299 0 1 2 443
0463581394955e-20 .0906575912042673 ??.001806394146185705 -.00331309582575374 .0
47904239778555 .001375016304132816 -.00351411353336368 .0487197048550475 41 1 30
0 L?.001806394146185705 -.00331309582575374 .047904239778555 41 1 301 L?.0013750
16304132816 -.00351411353336368 .0487197048550475 204 8 302 4 4.213216516844845
 -.02190423977855505 5.2174152250949 .1080682401569404 4.339418928214395 -.02271
97048550475 5.18051174607882 .1082692578645504 40 2 293 0 1 2 573108844815223e-1
9 .0854102912665912 ??.001375016304132816 -.00431789014270288 .0487197048550475
 .000822250156607661 -.004456315720529735 .0498869086912965 41 1 294 L?.00137501
6304132816 -.00431789014270288 .0487197048550475 41 1 295 L?.000822250156607661
 -.004456315720529735 .0498869086912965 204 8 296 4 4.404096015797415 -.02271970
485504745 5.18051174607883 .1090730344738896 4.52992771073752 -.0238869086912965
 5.12884688348568 .1092114600517164 40 2 286 0 1 2 .000198246218091426 .13602893
5628899 ??-.000163041470769617 -.00499734104087457 .0525 .000822250156607661 -.0
049319270756935 .0498869086912965 41 1 287 L?-.000163041470769617 -.004997341040
87457 .0525 41 1 288 L?.000822250156607661 -.0049319270756935 .0498869086912965
 204 8 289 4 4.74500305604321 -.0265 5.01708163440009 .1097524853720612 4.547188
55464205 -.0238869086912965 5.12884688348568 .1096870714068802 40 2 279 0 1 2 47
2733725348045e-19 .1318431472598804 ??.001806394146185705 .002227484769208345 .0
47904239778555 .0021138474288471 .00193814273364622 .0473640807271661 41 1 280 L
?.001806394146185705 .002227484769208345 .047904239778555 41 1 281 L?.0021138474
288471 .00193814273364622 .0473640807271661 204 8 282 4 2.252182689421195 -.0219
0423977855505 5.2174152250949 .1025276595619784 2.39952990949839 -.0213640807271
6605 5.24227705834708 .1028170015975404 40 2 270 0 1 2 4430463581394375e-20 .090
6575912042679 ??.001375016304132816 .00351411353336368 .0487197048550475 .001806
39414618571 .00331309582575374 .047904239778555 41 1 271 L?.001375016304132816 .
00351411353336368 .0487197048550475 41 1 272 L?.00180639414618571 .0033130958257
5374 .047904239778555 204 8 273 4 1.94376637896519 -.02271970485504745 5.1805117
4607883 .101241030797823 2.06996879033474 -.02190423977855505 5.2174152250949 .1
01442048505433 40 2 261 0 1 2 573108844815187e-19 .0854102912665915 ??.000822250
156607658 .004456315720529735 .0498869086912965 .001375016304132814 .00431789014
270288 .0487197048550475 41 1 262 L?.000822250156607658 .004456315720529735 .049
8869086912965 41 1 263 L?.001375016304132814 .00431789014270288 .048719704855047
5 204 8 264 4 1.753257596442065 -.0238869086912965 5.12884688348568 .10029882861
0657 1.879089291382175 -.0227197048550475 5.18051174607882 .1004372541884838 40
 2 251 0 1 2 .000198246218091429 .1360289356288984 ??.000822250156607658 .004931
9270756935 .0498869086912965 -.0001630414707696145 .00499734104087457 .0525 41 1
 252 L?.000822250156607658 .0049319270756935 .0498869086912965 41 1 253 L?-.0001
630414707696145 .00499734104087457 .0525 204 8 254 4 1.735996752537535 -.0238869
086912965 5.12884688348568 .0998232172554932 1.53818225113638 -.0265 5.017081634
40009 .0997578032903121 141 243 222 234 234 224 141 242 8 242 242 23 141 241 402
 241 241 233 141 223 208 223 223 213 82 3 172 11 7 1 82 3 137 11 5 0 81 1 39 143
5 38 79 0 0 51 35 617 81 1 51 1434 38 62 0 0 48 39 618 82 3 617 12 3 0 82 3 618
 12 2 0 82 3 52 12 1 0 82 3 41 12 4 0 19 18 415 0 1 0 10 6 0 S0 141 22 224 22 22
 8 40 14 25 0 1 14 .00151839699329554 .38350169625379 ??-.001587706863211995 -.0
0885884794521894 .0566061643849569 .000956143362956876 -.00894906642446426 .0484
401929240101 .00359001431964632 -.00825298716736767 .0443021044590953 .005893062
69702029 -.0068023387190722 .0417330527732507 .00756984720898959 -.0048679988940
583 .04023797289605055 .00871171122782696 -.00225966534755803 .0393593243898762
 .00899532403835696 -.000290078342793174 .0391565229579066 .00872211030535651 .0
02219187198321485 .03935178440144265 .00780948016281675 .004473479583788425 .040
0449518962461 .00641830269864743 .00630915132712278 .0412357782206437 .004244173
576445675 .00793643437905212 .04349887229131705 .001438676139813086 .00888426760
992332 .0475367916806031 -.001262583669690822 .00891099783845952 .05472305139359
54 -.001671672398118665 .00884338800423052 .062695723209388 41 1 26 L?-.00158770
6863211995 -.00885884794521894 .0566061643849569 41 1 27 L?-.001671672398118665
 .00884338800423052 .062695723209388 204 56 28 4 4.88972893443554 -.030606164384
9569 4.84587665532057 .1136139922764056 4.60594996346891 -.02244019292401005 5.1
8288197387241 .113704210755651 4.302082400590005 -.0183021044590953 5.3755408395
641 .1130081314985544 3.99849119460132 -.0157330527732507 5.51094723447134 .1115
57483050259 3.713086082812305 -.01423797289605052 5.59907473084773 .109623143225
245 3.395382215383475 -.0133593243898762 5.65558382892911 .1070148096787446 3.17
382916360037 -.01315652295790658 5.66925692450172 .10504522267398 2.892446718143
06 -.01335178440144262 5.65608755169837 .1025359571328652 2.62139311993073 -.014
0449518962461 5.61114158344662 .1002816647473982 2.364770336975155 -.01523577822
06437 5.53931278693479 .0984459930040639 2.061872140956785 -.01749887229131705 5
.41616749297148 .0968187099521346 1.731337966207045 -.02153679168060305 5.223049
11281623 .0958708767212634 1.430044976355536 -.02872305139359545 4.9208343388229
4 .0958441464927272 1.383970011194402 -.036695723209388 4.60647644405111 .095911
7563269562 74 4 CI16 index_map_offset0 0 1 dCCZ20 16 5 0 0 523 487 14 2 340 0 0
 0 0 0 0 0 0 0 0 0 0 0 0 0 80 1 13 327 619 8040 0 0 0 0 3 5 0 0 0 TTTFFFFFFFFFFF
FFF2 83 3 15 .647058823529412 .647058823529412 .647058823529412 79 17 619 SDL/TY
SA_COLOUR_21 0 
